# xmcd CD database file
#
# Track frame offsets:
#	183
#	10533
#	20808
#	34533
#	48258
#	48933
#	60558
#	72183
#	81183
#	90183
#	91083
#	92583
#	104283
#	115908
#	131733
#	147483
#	165933
#	184308
#	196308
#	208308
#	210108
#	222183
#	234258
#	248358
#	262458
#	267258
#	271983
#	276783
#	281508
#	286233
#	291033
#	295833
#	300558
#	305433
#	310233
#	315033
#	317508
#	319983
#	322458
#	324933
#	327408
#	329883
#	332358
#	334833
#	337308
#
# Disc length: 4527 seconds
#
# Revision: 0
# Processed by: cddbd v1.4PL0 Copyright (c) Steve Scherf et al.
# Submitted via: CDex 1.40Release
#
DISCID=9911ad2d
DTITLE=Les Hurdle and Michael Morgan - U.S.A. - Country, Man and Machine
DYEAR=9999
DGENRE=Country
TTITLE0=Steppin' Out/Lighthearted Travelogue
TTITLE1=Steppin' Out/Rythm Underscore
TTITLE2=Holy Smoke/Very Modern Sounding "Hoedown"
TTITLE3=Holy Smoke/Rythm Underscore
TTITLE4=Holy Smoke/Statement
TTITLE5=Cotton Glory/Country Waltz. Crying Fiddle and Acoustic Guitar
TTITLE6=Cotton Glory/Rythm Underscore
TTITLE7=Thunder Mountain/Busy Industry. City Hustle. Gyitar/Strings/Harmonica
TTITLE8=Thunder Mountain/Rythm Underscore
TTITLE9=Thunder Mountain/Harmonica Solo
TTITLE10=Thunder Mountain/As Above
TTITLE11=Dusty Denim/Dirt Roads, Sweat, Hardened People
TTITLE12=Dusty Denim/Descriptive Underscore
TTITLE13=Ain't That Special/Current "Live Band" Rock-A-Billy/Country Swing
TTITLE14=Ain't That Special/Rythm Underscore
TTITLE15=Missin' You/Gentle, Romantic
TTITLE16=Missin' You/Rythm Underscore
TTITLE17=Quick Draw/Fast Guitar and Busy Harmonica
TTITLE18=Quick Draw/Rythm Underscore
TTITLE19=Quick Draw/Busy Harmonica Solo
TTITLE20=Timberline/Modern Pop/Folksy
TTITLE21=Timberline/Rythm Underscore
TTITLE22=Texas Rose/Raunchy Country Rock and Roll
TTITLE23=Texas Rose/Rythm Underscore
TTITLE24=59 Second Version/Steppin' Out
TTITLE25=59 Second Version/Holy Smoke
TTITLE26=59 Second Version/Cotton Glory
TTITLE27=59 Second Version/Thunder Mountain
TTITLE28=59 Second Version/Dusty Denim
TTITLE29=59 Second Version/Dusty Denim
TTITLE30=59 Second Version/Ain't That Special
TTITLE31=59 Second Version/Missin' You
TTITLE32=59 Second Version/Quick Draw
TTITLE33=59 Second Version/Timberline
TTITLE34=59 Second Version/Texas Rose
TTITLE35=29 Second Version/Steppin' Out
TTITLE36=29 Second Version/Holy Smoke
TTITLE37=29 Second Version/Cotton Glory
TTITLE38=29 Second Version/Thunder Mountain
TTITLE39=29 Second Version/Dusty Denim
TTITLE40=29 Second Version/Ain't That Special
TTITLE41=29 Second Version/Missin' You
TTITLE42=29 Second Version/Quick Draw
TTITLE43=29 Second Version/Timberline
TTITLE44=29 Second Version/Texas Rose
EXTD=YEAR: 9999 ID3G: 2
EXTT0=
EXTT1=
EXTT2=
EXTT3=
EXTT4=
EXTT5=
EXTT6=
EXTT7=
EXTT8=
EXTT9=
EXTT10=
EXTT11=
EXTT12=
EXTT13=
EXTT14=
EXTT15=
EXTT16=
EXTT17=
EXTT18=
EXTT19=
EXTT20=
EXTT21=
EXTT22=
EXTT23=
EXTT24=
EXTT25=
EXTT26=
EXTT27=
EXTT28=
EXTT29=
EXTT30=
EXTT31=
EXTT32=
EXTT33=
EXTT34=
EXTT35=
EXTT36=
EXTT37=
EXTT38=
EXTT39=
EXTT40=
EXTT41=
EXTT42=
EXTT43=
EXTT44=
PLAYORDER=
